<?xml version="1.0" encoding="UTF-8"?>
<!DOCTYPE svg PUBLIC "-//W3C//DTD SVG 1.1//EN" "http://www.w3.org/Graphics/SVG/1.1/DTD/svg11.dtd">
<svg version="1.1" xmlns="http://www.w3.org/2000/svg" xmlns:xlink="http://www.w3.org/1999/xlink" x="0" y="0" width="535" height="1020" viewBox="0, 0, 535, 1020">
  <g id="Layer_1">
    <path d="M299.735,1012.425 L297.305,1012.665 L294.34,1012.935 C290.225,1012.62 287.505,1012.415 276.975,1007.88 C296.255,999.46 301.77,996.2 321.32,983.275 C339.605,999.42 339.605,999.42 341.485,1001.265 C326.335,1006.855 316.325,1010.545 299.735,1012.425" fill="#F1A944"/>
    <path d="M471.305,566.91 L469.595,563.755 C466.02,558.065 461.415,550.34 457.605,544.855 C442.295,524.84 441.375,523.64 428.595,511.06 L416.57,500.415 L422.9,506.55 C439.435,522.475 453.71,536.23 471.305,566.91" fill="#F1A944"/>
    <path d="M479.825,583.59 L477.145,577.975 L477.59,578.895 L479.825,583.59" fill="#F1A944"/>
    <path d="M499.645,845.585 L500.205,842.785 C505.205,815.58 509.93,789.88 510.025,739.31 L509.4,713.34 C509.5,736.325 509.505,738.205 507.415,754.305 C507.65,783.815 507.855,809.3 499.645,845.585" fill="#F1A944"/>
    <path d="M295.21,1012.785 L294.34,1012.935 L297.305,1012.665 L299.735,1012.425 L295.21,1012.785" fill="#F1A944"/>
    <path d="M241.815,1013.655 L238.24,1013.515 L240.46,1013.65 L243.26,1013.805 L241.815,1013.655" fill="#F1A944"/>
    <path d="M14.85,766.685 C14.91,736.135 14.965,707.285 23.775,667.745 C24.355,645.17 24.37,644.74 28.865,625.645 L27.865,629.195 C20.455,660.34 20.165,661.555 17.675,680.76 C14.345,716.025 14.215,717.4 14.14,738.365 L14.325,755.685 L14.85,766.685" fill="#F1A944"/>
    <path d="M15.56,782.655 L15.33,779.38 L16.14,790.45 L15.56,782.655" fill="#F1A944"/>
    <path d="M261.675,990.875 C261.925,993.17 262.18,996.315 262.955,998.455 C262.7,996.155 262.38,993.045 261.675,990.875" fill="#F1A944"/>
    <path d="M303.095,472.93 C285.9,468.39 282.32,467.445 262.525,462.74 C279.285,465.35 288.52,466.785 303.095,472.93" fill="#F1A944"/>
    <path d="M372.565,495.255 C355.265,488.85 341.595,483.785 313.06,475.695 C294.655,468.215 287.63,465.705 262.525,462.74 C282.57,464.27 293.61,465.115 316.945,468.215 C335.14,473.78 350.86,478.59 372.565,495.255" fill="#F1A944"/>
    <path d="M432.715,525.655 C419.33,517.11 407.78,509.73 382.055,499.075 C367.145,487.62 355.36,478.575 327.085,469.71 C344.295,472.68 362.1,475.75 381.375,482.265 C398.51,492.875 413.305,502.04 432.715,525.655" fill="#F1A944"/>
    <path d="M428.595,511.06 C445.35,528.435 446.725,529.85 457.605,544.855 C461.225,550.505 466.215,557.91 469.595,563.755 C460.65,550.155 457.3,545.065 439.785,530.815 C426.195,514.46 415.465,501.545 388.92,485 C397.475,488.74 408.115,493.385 416.57,500.415 L428.595,511.06" fill="#F1A944"/>
    <path d="M289.41,479.03 C279.67,473.43 270.47,468.14 262.525,462.74 C274.905,467.85 281.12,470.415 289.41,479.03" fill="#F1A944"/>
    <path d="M348.23,511.63 C331.145,502.06 313.96,492.725 296.845,483.21 C286.16,472.89 282.205,469.605 262.525,462.74 C283.76,468.545 291.345,470.69 311.48,476.875 C325.135,485.075 336.93,492.16 348.23,511.63" fill="#F1A944"/>
    <path d="M412.835,551.96 C396.655,540.84 384.965,532.8 357.49,516.93 C349.6,503.99 342.795,492.815 321.285,479.975 C339.12,485.915 357.565,492.05 380.145,501.79 C392.55,514.695 403.255,525.845 412.835,551.96" fill="#F1A944"/>
    <path d="M468.185,601.025 C451.88,583.245 447.06,578.29 421.635,558.385 C414.825,540.915 408.935,525.83 389.56,505.985 C415.695,518.63 421.08,521.94 439.58,534.87 C450.8,552.72 460.49,568.13 468.185,601.025" fill="#F1A944"/>
    <path d="M479.825,583.59 C493.285,616.015 495.98,625.475 502.005,661.46 C493.99,638.805 491.45,632.555 474.55,608.875 C468.93,586.685 464.07,567.525 446.575,540.415 C462.915,555.355 467,559.86 477.145,577.975 L479.825,583.59" fill="#F1A944"/>
    <path d="M267.18,482.525 C263.3,474.02 261.355,469.75 262.525,462.74 C266.585,469.44 268.44,472.5 267.18,482.525" fill="#F1A944"/>
    <path d="M301.145,523.04 C289.61,511.57 278.705,500.735 270.175,487.58 C270.805,474.535 269.88,471.515 262.525,462.74 C271.96,470.135 275.185,472.545 293.53,484.06 C299.23,494.165 303.725,502.145 301.145,523.04" fill="#F1A944"/>
    <path d="M357.745,572.985 C316.145,536.985 316.145,536.985 308.175,529.62 C309.315,515.145 310.22,503.705 300.91,488.6 C317.9,498.815 334.975,508.84 351.92,519.17 C356.8,533.525 361.015,545.92 357.745,572.985" fill="#F1A944"/>
    <path d="M419.395,631.035 C399.48,610.605 393.76,605.03 366.635,580.795 C368.095,562.515 369.36,546.725 361.065,524.79 C378.21,535.62 395.94,546.815 415.96,562.05 C419.945,580.995 423.385,597.35 419.395,631.035" fill="#F1A944"/>
    <path d="M470.495,698.12 C455.01,672.96 450.435,666.38 427.665,640 C429.715,617.12 431.485,597.365 424.685,568.86 C448.055,588.405 453.21,593.435 470.635,613.725 C473.475,637.4 475.93,657.85 470.495,698.12" fill="#F1A944"/>
    <path d="M498.59,776.78 C492.21,745.99 489.97,738.145 476.135,708.65 C479.245,681.015 481.935,657.14 476.875,621.89 C491.82,644.39 495.16,650.505 503.67,676.825 C505.035,704.345 506.32,730.34 498.59,776.78" fill="#F1A944"/>
    <path d="M510.025,739.31 C509.27,772.785 508.555,804.4 500.205,842.785 C502.795,823.085 503.46,815.545 500.345,788.175 C504.82,757.885 509.05,729.27 506.105,686.985 C507.315,694.845 508.785,705.385 509.4,713.34 L510.025,739.31" fill="#F1A944"/>
    <path d="M242.93,482.22 C248.18,473.375 250.57,469.34 262.525,462.74 C257.12,469.335 254.655,472.34 242.93,482.22" fill="#F1A944"/>
    <path d="M244.55,525.92 C240.6,512.855 237.19,501.575 241.015,487.45 C249.89,479.1 258.27,471.21 262.525,462.74 C259.845,473.42 261.4,477.055 266.025,487.855 C262.375,498.07 259.49,506.14 244.55,525.92" fill="#F1A944"/>
    <path d="M277.255,583.54 C266.155,567.495 255.675,552.34 247.5,533.415 C256.735,520.01 264.71,508.435 269,493.255 C275.87,503.66 281.295,511.88 299.745,530.79 C295.645,545.4 292.405,556.935 277.255,583.54" fill="#F1A944"/>
    <path d="M331.135,651.215 C313.455,630 298.19,611.68 283.96,592.665 C293.485,574.615 301.71,559.025 306.675,537.74 C317.81,548.435 317.81,548.435 355.995,583.24 C351.385,601.885 347.75,616.61 331.135,651.215" fill="#F1A944"/>
    <path d="M391.795,726.985 C373.9,702.91 370.435,698.415 339.77,661.635 C350.775,637.335 359.47,618.145 364.885,591.42 C392.035,616.815 397.725,622.62 417.5,643.845 C412.58,667.145 408.325,687.275 391.795,726.985" fill="#F1A944"/>
    <path d="M439.925,811.215 C423.31,775.255 419.405,768.56 399.82,738.42 C410.4,711.095 419.535,687.505 425.73,653.195 C447.735,680.005 452.475,686.765 468.02,713.46 C462.935,737.96 456.6,768.46 439.925,811.215" fill="#F1A944"/>
    <path d="M465.43,880.935 C459.83,859.84 457.81,853.625 445.02,822.86 C454.13,798.485 465.475,768.145 473.59,724.26 C486.8,754.56 488.82,761.865 495.405,793.64 C488.57,822.04 482.665,846.57 465.43,880.935" fill="#F1A944"/>
    <path d="M464.5,926.285 C468.565,913.255 469.52,909.01 466.97,888.75 C477.85,866.265 488.13,845.03 497.14,804.42 C499.84,830.36 500.035,837.31 496.23,858.79 C488.865,881.23 482.51,900.61 464.5,926.285" fill="#F1A944"/>
    <path d="M221.395,478.19 C234.84,470.59 240.975,467.12 262.525,462.74 C237.865,471.95 234.695,473.135 221.395,478.19" fill="#F1A944"/>
    <path d="M191.445,520.14 C195.71,507.12 199.395,495.875 215.105,482.815 C230.915,476.125 246.75,469.535 262.525,462.74 C252.41,468.145 242.855,473.25 236.99,487.035 C224.155,496.915 218.845,501.005 191.445,520.14" fill="#F1A944"/>
    <path d="M195.27,581.005 C190.915,563.355 187.155,548.12 189.96,527.815 C206.755,515.225 221.255,504.36 235.1,492.62 C232.82,506.68 232.83,515.42 238.815,533.14 C227.04,547.115 220.55,554.81 195.27,581.005" fill="#F1A944"/>
    <path d="M228.41,655.97 C217.305,635.26 206.815,615.7 198.385,590.95 C214.335,573.54 228.115,558.505 241.77,541 C248.515,555.795 253.845,567.48 271.515,593.2 C259.67,611.875 253.145,622.155 228.41,655.97" fill="#F1A944"/>
    <path d="M280.705,741.17 C254.295,699.96 250.73,694.145 234.95,667.555 C250.8,645.03 264.49,625.58 278.13,602.71 C292.045,621.665 297.81,629.51 324.995,663.47 C312.35,687.33 306,699.315 280.705,741.17" fill="#F1A944"/>
    <path d="M338.075,834.02 C310.015,787.265 310.015,787.265 288.915,753.99 C305.345,726.11 319.53,702.035 333.625,674.185 C365.815,714.515 370.35,720.805 385.385,741.655 C364.19,786.875 347.96,816.845 338.075,834.02" fill="#F1A944"/>
    <path d="M386.49,908.14 C354.02,859.4 354.02,859.4 345.84,846.625 C355.81,829.22 374.365,796.83 393.34,753.59 C413.195,785.325 415.1,789.28 433.32,827.12 C420.875,853.68 410.125,876.62 386.49,908.14" fill="#F1A944"/>
    <path d="M412.105,954.2 C406.845,941.235 404.87,937.25 391.795,916.27 C407.045,895.525 421.445,875.925 438.475,838.24 C450.53,865.92 453.135,872.505 458.835,893.235 C446.245,913.795 435.37,931.555 412.105,954.2" fill="#F1A944"/>
    <path d="M408.85,978.85 C414.085,972.57 415.38,970.45 413.51,958.845 C428.77,943.765 443.18,929.52 460.335,900.6 C462.3,917 462.605,921.86 457.585,935.49 C444.82,950.155 432.77,964 408.85,978.85" fill="#F1A944"/>
    <path d="M208.15,470.83 C227.555,465.565 235.585,463.39 262.525,462.74 C240.79,465.51 231.055,466.795 208.15,470.83" fill="#F1A944"/>
    <path d="M152.265,506.53 C163.735,494.705 173.64,484.49 198.64,474.24 C217.1,470.39 231.685,467.35 262.21,462.79 C242.19,466.735 228.82,469.99 211.96,481.815 C194.715,488.565 175.165,496.225 152.265,506.53" fill="#F1A944"/>
    <path d="M126.75,566.66 C129.97,548.95 132.755,533.655 146.62,513.785 C164.165,505.31 175.755,499.705 205.74,486.8 C195.97,496.845 187.53,505.52 182.605,526.325 C164.53,538.975 145.84,552.06 126.75,566.66" fill="#F1A944"/>
    <path d="M133.99,645.34 C129.055,623.865 124.39,603.585 125.825,576.895 C143.41,562.845 149.99,557.585 181.22,534.325 C180.04,551.895 179.83,564.39 186.865,589.7 C167.18,609.945 150.175,627.425 133.99,645.34" fill="#F1A944"/>
    <path d="M169.275,737.71 C157.665,712.29 146.695,688.28 137.495,657.785 C156.035,636.675 159.105,633.235 190.035,599.95 C197.07,619.225 202.62,634.45 220.215,667.05 C200.99,693.095 184.38,715.59 169.275,737.71" fill="#F1A944"/>
    <path d="M222.025,839.255 C209.6,816.975 199.79,799.38 176.065,751.845 C193.85,725.34 196.805,721.025 226.76,679.015 C242.5,706.335 246.06,712.315 272.435,754.79 C255.445,782.795 239.08,811.3 222.025,839.255" fill="#F1A944"/>
    <path d="M278.06,920.99 C256.08,892.965 250.265,884.705 230.2,852.995 C233.405,847.79 233.405,847.79 280.615,767.98 C297.02,794.76 312.91,821.95 329.47,848.61 C314.66,872.015 301.865,892.23 278.06,920.99" fill="#F1A944"/>
    <path d="M324.54,972.085 C307.04,954.535 302.305,949.43 285.56,930.055 C300.705,912.08 316.36,893.49 337.185,860.71 C352.44,883.645 352.44,883.645 377.745,919.3 C363.03,936.265 349.135,952.285 324.54,972.09" fill="#F1A944"/>
    <path d="M350.225,997.425 C346.41,993.075 346.41,993.075 329.755,977.12 C345.04,965.005 362.36,951.265 383.1,926.9 C395.575,945.665 398.215,949.985 403.455,962.195 C381.62,980.105 375.7,984.34 350.225,997.425" fill="#F1A944"/>
    <path d="M379.94,993.495 C374.46,995.535 367.135,998.2 361.6,1000.025 C358.105,1001.045 353.46,1002.46 349.955,1003.395 C350.505,1003.06 351.235,1002.61 351.78,1002.275 C351.825,1001.385 351.785,1000.135 351.44,999.34 C376.995,987.315 382.935,983.35 404.84,966.43 C406.18,975.515 406.27,978.135 399.87,984.075 C393.93,987.015 386.045,991.06 379.94,993.495" fill="#F1A944"/>
    <path d="M139.005,488.495 C157.95,477.405 171.345,470.24 197.57,464.365 C214.9,463.145 228.59,462.18 260.2,462.695 C238.105,463.28 221.81,464.3 197.55,472.84 C178.71,476.84 160.915,480.62 139.005,488.495" fill="#F1A944"/>
    <path d="M87.535,542.615 C98.06,526.19 107.155,512 130.24,494.575 C146.115,488.49 158.655,483.68 188.2,476.615 C172.73,484.45 158.12,491.855 142.315,511.13 C124.405,519.975 107.49,528.33 87.535,542.615" fill="#F1A944"/>
    <path d="M65.59,621.19 C67.74,598.755 69.595,579.375 82.37,552.455 C97.095,541.715 108.73,533.24 136.775,518.72 C128.18,533.585 120.755,546.43 117.445,573.92 C101.04,587.285 84.07,601.1 65.59,621.19" fill="#F1A944"/>
    <path d="M77.21,718.485 C71.145,692.27 65.415,667.505 65.275,634.205 C79.115,618.97 90.05,606.93 116.56,584.545 C116.52,604.38 116.485,621.505 125.19,655.255 C109.78,673.4 93.845,692.165 77.21,718.485" fill="#F1A944"/>
    <path d="M116.485,827.555 C102.64,796.03 96.325,781.64 81.325,733.585 C93.99,713.64 103.99,697.885 128.825,668.105 C136.56,691.93 142.665,710.75 160.93,750.115 C139.495,783.78 138.63,785.43 116.485,827.555" fill="#F1A944"/>
    <path d="M170.61,916.93 C147.965,886.335 142.7,877.97 123.655,842.355 C153.27,787.95 155.045,784.695 167.775,764.515 C193.71,817.43 200.06,828.39 213.975,852.42 C200.22,873.94 191.915,886.93 170.61,916.93" fill="#F1A944"/>
    <path d="M226.615,975.165 C205.93,957.195 200.03,951.55 178.84,927.165 C191.245,910.395 205.305,891.38 222.07,865.64 C241.625,895.25 247.41,903.425 269.855,930.66 C256.3,945.805 245.59,957.755 226.615,975.165" fill="#F1A944"/>
    <path d="M272.04,1005.55 C257.005,997.52 252.08,994.53 234.03,981.09 C245.73,970.865 259,959.28 277.33,939.28 C291.86,955.13 297.295,961.06 316.155,978.63 C296.635,992.545 291.145,996.095 272.04,1005.55" fill="#F1A944"/>
    <path d="M339.245,1006.03 C325.505,1008.885 325.24,1008.945 317.785,1010.105 L309.235,1011.32 C325.705,1008.395 326.69,1008.22 342.735,1002.8 C342.895,1003.31 343.11,1003.99 343.27,1004.5 L342.08,1005.375 L339.245,1006.03" fill="#F1A944"/>
    <path d="M89.98,516.65 C105.085,502.275 118.125,489.855 144.785,475.78 C155.65,471.53 164.23,468.17 188.445,465.29 C170.75,470.615 154.04,475.64 130.515,491.765 C116.315,498.135 102.905,504.15 89.98,516.65" fill="#F1A944"/>
    <path d="M42.885,589.845 C52.33,568.645 60.485,550.33 81.855,525.495 C91.76,516.075 99.585,508.63 121.82,498.26 C107.44,510.875 93.86,522.79 79.67,548.56 C66.52,559.81 54.1,570.44 42.885,589.845" fill="#F1A944"/>
    <path d="M24.66,686.74 C25.985,659.55 27.135,636.065 38.325,602.33 C46.755,588.4 54.035,576.37 74.57,558.79 C66.99,577.84 59.83,595.835 58.115,629.78 C45.765,645.735 34.095,660.81 24.66,686.74" fill="#F1A944"/>
    <path d="M40.4,801.155 C33.72,774.265 26.15,743.79 24.82,702.205 C32.175,683.555 38.525,667.445 57.845,643.085 C58.985,667.85 59.97,689.235 70.42,729.755 C57.885,753.12 50.975,765.985 40.4,801.155" fill="#F1A944"/>
    <path d="M82.44,898.04 C63.125,864.84 58.94,855.735 45.13,816.835 C52.905,793.53 60.25,771.51 74.65,745.15 C89.79,793.915 94.9,805.835 110.29,839.635 C98.52,862.635 89.22,880.8 82.44,898.04" fill="#F1A944"/>
    <path d="M138.29,964.235 C116.305,943.71 110.22,937.26 89.855,909.345 C96.56,894.085 99.92,886.425 117.425,853.82 C136.025,887.085 141.205,895.405 164.605,925.44 C147.5,949.46 145.78,952 138.29,964.235" fill="#F1A944"/>
    <path d="M195.74,1001.74 C173.67,990.93 167.72,987.235 146.745,971.32 C154.04,960.175 155.495,958.145 172.78,935.14 C191.77,955.765 197.69,961.93 220.715,980.515 C214.145,986.245 214.145,986.245 195.74,1001.74" fill="#F1A944"/>
    <path d="M243.26,1013.805 L240.46,1013.65 L238.24,1013.515 C226.335,1012.05 220.36,1011.31 203.37,1004.93 C215.755,995.95 218.87,993.455 228.13,986.045 C244.31,997.075 249.705,1000.59 266.1,1008.14 C257.195,1011.39 250.16,1013.955 243.26,1013.805" fill="#F1A944"/>
    <path d="M277.92,1013.98 C265.37,1014.345 265.37,1014.345 259.11,1014.285 L250.85,1014.12 C259.06,1013.59 259.38,1013.565 270.96,1010.085 C280.585,1013.2 280.77,1013.26 286.435,1013.535 L277.92,1013.98" fill="#F1A944"/>
    <path d="M32.055,867.22 C23.465,839.705 20.25,829.41 16.14,790.45 L15.33,779.38 C14.575,743.66 16.595,734.735 21.485,713.165 C23.35,740.26 25.455,770.975 37.335,812.175 C31.26,839.665 30.67,845.84 32.055,867.22" fill="#F1A944"/>
    <path d="M74.97,941.205 C54.86,916.375 50.57,909.445 36.745,879.42 C35.155,856.695 36.76,849.9 42.07,827.37 C55.44,863.51 59.43,872.59 79.585,905.665 C73.805,924.715 73.335,928.37 74.97,941.205" fill="#F1A944"/>
    <path d="M133.86,987.61 C109.47,973.585 103.26,968.97 82.775,949.595 C80.785,936.245 82.115,932.075 87.055,916.54 C105.22,940.14 110.995,947.205 135.79,968.88 C131.055,979.91 130.855,981.835 133.86,987.61" fill="#F1A944"/>
    <path d="M191.68,1007.35 L181.64,1005.13 C177.81,1004.135 172.695,1002.85 168.88,1001.765 C160.965,999.125 150.5,995.235 142.75,991.99 C139.94,987.595 139.18,986.42 144.28,975.525 C164.245,989.515 170.425,993.59 193.66,1003.67 C192.81,1004.56 191.62,1005.8 191.155,1007.015 L191.68,1007.35" fill="#F1A944"/>
    <path d="M266.83,395.69 C267.005,394.205 267.38,392.625 267.875,390.885 L266.83,395.69" fill="#165F34"/>
    <path d="M501.075,108.915 C501.075,108.915 363.34,245.37 305.53,325.76 C308.145,316.105 310.355,306.47 312.19,296.91 C317.82,267.58 320.12,238.905 320.035,211.615 C342.795,191.02 437.625,108.915 501.075,108.915" fill="#165F34"/>
    <path d="M267.875,390.885 L266.83,395.69 C267.005,394.205 267.38,392.625 267.875,390.885" fill="#165F34"/>
    <path d="M525.94,300.745 C444.89,259.14 368.485,304.285 317.51,346.12 C309.1,381.265 295.715,417.185 275.59,452.525 L294.84,443.645 C305.94,365.775 525.94,300.745 525.94,300.745" fill="#165F34"/>
    <path d="M209.15,117.58 L90.95,20.475 C90.95,20.475 183.995,136.745 168.015,181.465 C152.025,226.185 209.15,117.58 209.15,117.58" fill="#165F34"/>
    <path d="M161.285,290.255 C98.305,213.74 9.055,121.77 9.055,121.77 C45.44,116.27 125.25,185.465 160.03,217.57 C155.615,241.435 156.82,266.23 161.285,290.255" fill="#165F34"/>
    <path d="M461.52,26.765 C461.52,26.765 374.355,102.48 323.055,173.8 C319.975,147.76 315.18,123.84 309.835,102.86 C347.325,79.915 420.83,36.935 461.52,26.765" fill="#165F34"/>
    <path d="M42.37,275.82 C40.19,275.765 38.995,275.765 38.995,275.765 C40.1,275.715 41.205,275.715 42.37,275.82" fill="#165F34"/>
    <path d="M160.64,321.305 C172.265,360.45 190.98,396.175 206.59,421.855 C188.92,421.245 173.165,416.795 173.165,416.795 C173.165,416.795 73.155,279.52 22.09,275.82 C37.175,276.2 98.385,278.63 154.01,294.575 C155.785,303.595 158.02,312.54 160.64,321.305" fill="#165F34"/>
    <path d="M275.11,391.885 L275.055,392.47 L274.5,395.69 C274.62,394.49 274.82,393.24 275.11,391.885" fill="#165F34"/>
    <path d="M191.775,352.045 L250.25,168.745 L301.335,310.735 C304.84,284.8 306.29,259.445 306.24,235.19 C306.18,215.05 305.105,195.655 303.365,177.31 C300.895,151.27 297.025,127.35 292.725,106.37 C281.59,52.02 267.645,17.495 267.645,17.495 C267.645,17.495 257.705,53.27 189.4,173.37 C175.74,197.42 170.16,223.435 169.96,249.625 C169.845,264.65 171.47,279.755 174.405,294.575 C176.175,303.595 178.415,312.54 181.035,321.305 C184.165,331.845 187.815,342.125 191.775,352.045" fill="#165F34"/>
    <path d="M275.055,392.47 L274.5,395.69 C274.62,394.49 274.82,393.24 275.11,391.885 L275.345,390.885 L275.055,392.47 z M250.92,204.5 L198.67,368.285 C207.83,388.66 217.925,406.955 226.98,421.855 C229.25,425.56 231.46,429.065 233.55,432.335 C233.55,432.335 244.565,443.14 257.935,454.95 C275.26,419.995 287,384.37 294.555,349.335 C295.665,344.29 296.665,339.26 297.595,334.235 L250.92,204.5" fill="#165F34"/>
    <path d="M216.455,95.86 C216.455,103.855 189.69,10.68 189.69,10.68 L242.235,49.865 C242.235,49.865 216.455,77.12 216.455,95.86" fill="#165F34"/>
  </g>
</svg>
